<svg width="354" height="274" viewBox="0 0 354 274" fill="none" xmlns="http://www.w3.org/2000/svg">
<ellipse cx="180.5" cy="137.5" rx="139.5" ry="130.5" fill="black"/>
<path d="M180.5 7L211.82 97.1733H313.172L231.176 152.903L262.496 243.077L180.5 187.347L98.504 243.077L129.824 152.903L47.8276 97.1733H149.18L180.5 7Z" fill="#11B8FF"/>
<path d="M172.659 109H155.045C154.004 103.934 152.181 99.483 149.577 95.6477C147.02 91.8125 143.895 88.5928 140.202 85.9886C136.556 83.3371 132.508 81.3485 128.057 80.0227C123.606 78.697 118.966 78.0341 114.136 78.0341C105.33 78.0341 97.3513 80.2595 90.2017 84.7102C83.0994 89.161 77.4413 95.7188 73.2273 104.384C69.0606 113.048 66.9773 123.678 66.9773 136.273C66.9773 148.867 69.0606 159.497 73.2273 168.162C77.4413 176.827 83.0994 183.384 90.2017 187.835C97.3513 192.286 105.33 194.511 114.136 194.511C118.966 194.511 123.606 193.848 128.057 192.523C132.508 191.197 136.556 189.232 140.202 186.628C143.895 183.976 147.02 180.733 149.577 176.898C152.181 173.015 154.004 168.564 155.045 163.545H172.659C171.333 170.979 168.919 177.632 165.415 183.503C161.911 189.374 157.555 194.369 152.347 198.489C147.138 202.561 141.291 205.662 134.804 207.793C128.365 209.923 121.475 210.989 114.136 210.989C101.731 210.989 90.6989 207.958 81.0398 201.898C71.3807 195.837 63.7813 187.22 58.2415 176.045C52.7017 164.871 49.9318 151.614 49.9318 136.273C49.9318 120.932 52.7017 107.674 58.2415 96.5C63.7813 85.3258 71.3807 76.7083 81.0398 70.6477C90.6989 64.5871 101.731 61.5568 114.136 61.5568C121.475 61.5568 128.365 62.6222 134.804 64.7528C141.291 66.8835 147.138 70.0085 152.347 74.1278C157.555 78.1998 161.911 83.1714 165.415 89.0426C168.919 94.8665 171.333 101.519 172.659 109ZM280.667 99.9091C279.815 92.7121 276.358 87.125 270.298 83.1477C264.237 79.1705 256.803 77.1818 247.996 77.1818C241.557 77.1818 235.923 78.2235 231.093 80.3068C226.311 82.3901 222.57 85.2547 219.871 88.9006C217.22 92.5464 215.894 96.6894 215.894 101.33C215.894 105.212 216.817 108.55 218.664 111.344C220.558 114.09 222.973 116.386 225.908 118.233C228.844 120.032 231.922 121.524 235.141 122.707C238.361 123.844 241.32 124.767 244.019 125.477L258.792 129.455C262.58 130.449 266.794 131.822 271.434 133.574C276.121 135.326 280.596 137.717 284.857 140.747C289.166 143.73 292.717 147.565 295.511 152.253C298.304 156.94 299.701 162.693 299.701 169.511C299.701 177.371 297.641 184.473 293.522 190.818C289.45 197.163 283.484 202.205 275.624 205.946C267.812 209.687 258.318 211.557 247.144 211.557C236.728 211.557 227.708 209.876 220.085 206.514C212.509 203.152 206.543 198.465 202.187 192.452C197.878 186.438 195.44 179.455 194.871 171.5H213.053C213.527 176.992 215.373 181.538 218.593 185.136C221.86 188.687 225.979 191.339 230.951 193.091C235.97 194.795 241.368 195.648 247.144 195.648C253.868 195.648 259.905 194.559 265.255 192.381C270.605 190.155 274.843 187.078 277.968 183.148C281.093 179.17 282.656 174.53 282.656 169.227C282.656 164.398 281.306 160.468 278.607 157.438C275.908 154.407 272.357 151.945 267.954 150.051C263.55 148.157 258.792 146.5 253.678 145.08L235.781 139.966C224.417 136.699 215.421 132.035 208.792 125.974C202.163 119.914 198.849 111.983 198.849 102.182C198.849 94.0379 201.05 86.9356 205.454 80.875C209.905 74.767 215.871 70.0322 223.352 66.6705C230.88 63.2614 239.284 61.5568 248.565 61.5568C257.94 61.5568 266.273 63.2377 273.565 66.5994C280.856 69.9138 286.633 74.4593 290.894 80.2358C295.203 86.0123 297.476 92.5701 297.712 99.9091H280.667Z" fill="white"/>
</svg>
