<svg width="281" height="261" viewBox="0 0 281 261" fill="none" xmlns="http://www.w3.org/2000/svg">
<path d="M275.542 130.5C275.542 201.07 215.207 258.5 140.5 258.5C65.7929 258.5 5.4579 201.07 5.4579 130.5C5.4579 59.9297 65.7929 2.5 140.5 2.5C215.207 2.5 275.542 59.9297 275.542 130.5Z" fill="black" stroke="white" stroke-width="5"/>
<path d="M141 5L170.636 91.0274L266.539 91.0274L188.952 144.195L218.588 230.223L141 177.055L63.4123 230.223L93.0482 144.195L15.4605 91.0274L111.364 91.0274L141 5Z" fill="#11B8FF"/>
<path d="M134.659 102H117.045C116.004 96.9337 114.181 92.483 111.577 88.6477C109.02 84.8125 105.895 81.5928 102.202 78.9886C98.5559 76.3371 94.5076 74.3485 90.0568 73.0227C85.6061 71.697 80.9659 71.0341 76.1364 71.0341C67.3295 71.0341 59.3513 73.2595 52.2017 77.7102C45.0994 82.161 39.4413 88.7188 35.2273 97.3835C31.0606 106.048 28.9773 116.678 28.9773 129.273C28.9773 141.867 31.0606 152.497 35.2273 161.162C39.4413 169.827 45.0994 176.384 52.2017 180.835C59.3513 185.286 67.3295 187.511 76.1364 187.511C80.9659 187.511 85.6061 186.848 90.0568 185.523C94.5076 184.197 98.5559 182.232 102.202 179.628C105.895 176.976 109.02 173.733 111.577 169.898C114.181 166.015 116.004 161.564 117.045 156.545H134.659C133.333 163.979 130.919 170.632 127.415 176.503C123.911 182.374 119.555 187.369 114.347 191.489C109.138 195.561 103.291 198.662 96.804 200.793C90.3646 202.923 83.4754 203.989 76.1364 203.989C63.7311 203.989 52.6989 200.958 43.0398 194.898C33.3807 188.837 25.7813 180.22 20.2415 169.045C14.7017 157.871 11.9318 144.614 11.9318 129.273C11.9318 113.932 14.7017 100.674 20.2415 89.5C25.7813 78.3258 33.3807 69.7083 43.0398 63.6477C52.6989 57.5871 63.7311 54.5568 76.1364 54.5568C83.4754 54.5568 90.3646 55.6222 96.804 57.7528C103.291 59.8835 109.138 63.0085 114.347 67.1278C119.555 71.1998 123.911 76.1714 127.415 82.0426C130.919 87.8665 133.333 94.5189 134.659 102ZM242.667 92.9091C241.815 85.7121 238.358 80.125 232.298 76.1477C226.237 72.1705 218.803 70.1818 209.996 70.1818C203.557 70.1818 197.923 71.2235 193.093 73.3068C188.311 75.3901 184.57 78.2547 181.871 81.9006C179.22 85.5464 177.894 89.6894 177.894 94.3295C177.894 98.2121 178.817 101.55 180.664 104.344C182.558 107.09 184.973 109.386 187.908 111.233C190.844 113.032 193.922 114.524 197.141 115.707C200.361 116.844 203.32 117.767 206.019 118.477L220.792 122.455C224.58 123.449 228.794 124.822 233.434 126.574C238.121 128.326 242.596 130.717 246.857 133.747C251.166 136.73 254.717 140.565 257.511 145.253C260.304 149.94 261.701 155.693 261.701 162.511C261.701 170.371 259.641 177.473 255.522 183.818C251.45 190.163 245.484 195.205 237.624 198.946C229.812 202.687 220.318 204.557 209.144 204.557C198.728 204.557 189.708 202.876 182.085 199.514C174.509 196.152 168.543 191.465 164.187 185.452C159.878 179.438 157.44 172.455 156.871 164.5H175.053C175.527 169.992 177.373 174.538 180.593 178.136C183.86 181.687 187.979 184.339 192.951 186.091C197.97 187.795 203.368 188.648 209.144 188.648C215.868 188.648 221.905 187.559 227.255 185.381C232.605 183.155 236.843 180.078 239.968 176.148C243.093 172.17 244.656 167.53 244.656 162.227C244.656 157.398 243.306 153.468 240.607 150.438C237.908 147.407 234.357 144.945 229.954 143.051C225.55 141.157 220.792 139.5 215.678 138.08L197.781 132.966C186.417 129.699 177.421 125.035 170.792 118.974C164.163 112.914 160.849 104.983 160.849 95.1818C160.849 87.0379 163.05 79.9356 167.454 73.875C171.905 67.767 177.871 63.0322 185.352 59.6705C192.88 56.2614 201.284 54.5568 210.565 54.5568C219.94 54.5568 228.273 56.2377 235.565 59.5994C242.856 62.9138 248.633 67.4593 252.894 73.2358C257.203 79.0123 259.476 85.5701 259.712 92.9091H242.667Z" fill="white"/>
</svg>
